<?xml version="1.0" standalone="no"?>
<!DOCTYPE svg PUBLIC "-//W3C//DTD SVG 20010904//EN"
 "http://www.w3.org/TR/2001/REC-SVG-20010904/DTD/svg10.dtd">
<svg version="1.0" xmlns="http://www.w3.org/2000/svg"
 width="209.000000pt" height="96.000000pt" viewBox="0 0 209.000000 96.000000"
 preserveAspectRatio="xMidYMid meet">
<metadata>
Created by potrace 1.13, written by Peter Selinger 2001-2015
</metadata>
<g transform="translate(0.000000,96.000000) scale(0.100000,-0.100000)"
fill="#000000" stroke="none">
<path d="M531 927 c-24 -12 -63 -44 -87 -70 -41 -46 -114 -175 -114 -202 0
-12 78 -45 105 -45 7 0 30 37 53 83 23 46 59 104 82 129 42 49 139 104 164 95
40 -16 95 -164 96 -259 0 -43 1 -42 -35 -28 -23 9 -26 8 -21 -5 12 -32 87
-155 94 -155 4 0 37 20 75 44 l67 44 -28 10 c-26 9 -28 13 -29 80 -3 87 -32
167 -76 210 -43 42 -179 92 -250 92 -34 0 -67 -8 -96 -23z"/>
<path d="M522 581 c-8 -4 -12 -19 -10 -32 2 -18 9 -24 28 -24 21 0 25 5 25 30
0 31 -19 42 -43 26z"/>
<path d="M1045 520 l0 -70 37 0 c27 0 41 6 52 22 37 52 5 118 -56 118 l-33 0
0 -70z m68 20 c7 -28 -3 -60 -19 -60 -10 0 -14 13 -14 40 0 43 23 57 33 20z"/>
<path d="M1175 520 c0 -63 2 -70 20 -70 18 0 20 7 20 70 0 63 -2 70 -20 70
-18 0 -20 -7 -20 -70z"/>
<path d="M1245 520 c0 -57 3 -70 16 -70 13 0 15 10 12 58 -5 64 11 57 22 -10
10 -57 22 -54 36 7 16 72 34 72 26 0 -5 -47 -3 -55 11 -55 14 0 17 11 17 70 0
66 -1 70 -22 70 -16 0 -25 -8 -29 -25 -3 -14 -10 -25 -14 -25 -4 0 -11 11 -14
25 -5 19 -13 25 -34 25 -27 0 -27 0 -27 -70z"/>
<path d="M1420 520 l0 -70 45 0 c38 0 45 3 45 20 0 21 -15 27 -25 10 -3 -5
-10 -10 -16 -10 -14 0 -11 37 4 44 10 5 10 7 0 12 -7 3 -13 13 -13 21 0 11 7
14 25 9 20 -5 25 -3 25 14 0 17 -7 20 -45 20 l-45 0 0 -70z"/>
<path d="M1535 520 c0 -53 3 -70 14 -70 10 0 12 10 8 40 -3 22 -2 40 2 40 5 0
16 -18 26 -40 25 -56 45 -52 45 8 0 26 3 57 6 70 5 16 2 22 -10 22 -14 0 -16
-6 -10 -35 4 -22 2 -35 -4 -35 -6 0 -16 16 -23 35 -9 24 -19 35 -34 35 -18 0
-20 -6 -20 -70z"/>
<path d="M1670 569 c-9 -16 -8 -26 5 -45 8 -13 20 -24 25 -24 6 0 10 -7 10
-15 0 -18 -12 -19 -28 -3 -9 9 -12 8 -12 -8 0 -14 7 -20 27 -22 48 -4 59 45
18 80 -32 28 -32 42 0 34 18 -5 23 -3 19 7 -8 21 -52 19 -64 -4z"/>
<path d="M1765 520 c0 -63 2 -70 20 -70 18 0 20 7 20 70 0 63 -2 70 -20 70
-18 0 -20 -7 -20 -70z"/>
<path d="M1850 571 c-14 -27 -13 -94 2 -109 7 -7 24 -12 40 -12 32 0 48 24 48
70 0 47 -16 70 -50 70 -19 0 -33 -7 -40 -19z m56 -26 c8 -33 -3 -77 -19 -72
-13 4 -22 60 -13 83 8 22 25 16 32 -11z"/>
<path d="M1975 520 c0 -50 4 -70 13 -70 9 0 10 11 6 40 -8 51 6 51 28 0 24
-57 48 -54 48 8 0 26 3 57 6 70 5 16 2 22 -11 22 -14 0 -16 -6 -11 -35 5 -23
3 -35 -4 -35 -6 0 -18 16 -26 35 -8 21 -21 35 -32 35 -14 0 -17 -10 -17 -70z"/>
<path d="M295 455 l0 -115 77 0 c56 0 81 4 92 16 23 22 20 71 -4 86 -18 11
-18 14 -3 30 21 23 20 68 -3 85 -11 8 -46 13 -88 13 l-71 0 0 -115z m105 60
c10 -12 10 -18 0 -30 -16 -19 -30 -10 -30 21 0 27 12 31 30 9z m-2 -84 c19
-11 11 -45 -11 -49 -13 -3 -17 3 -17 27 0 32 6 37 28 22z"/>
<path d="M600 525 c0 -41 2 -45 25 -45 18 0 25 5 25 20 0 14 7 20 21 20 13 0
18 -4 13 -12 -4 -7 -25 -41 -47 -75 -56 -90 -51 -98 53 -98 l85 0 3 32 3 33
651 2 c510 2 652 6 656 16 3 9 -137 12 -676 12 l-681 0 -3 -22 c-3 -21 -38
-40 -38 -20 0 5 20 40 45 78 65 101 64 104 -45 104 l-90 0 0 -45z"/>
<path d="M506 423 l1 -88 34 0 c26 0 34 4 33 18 0 9 -1 49 -2 87 l-2 70 -33 0
-33 0 2 -87z"/>
<path d="M90 451 l-74 -28 27 -15 c26 -13 28 -18 31 -93 5 -143 45 -199 186
-261 146 -64 243 -49 346 53 40 40 94 127 94 151 0 8 -130 66 -135 60 -1 -2
-13 -23 -25 -48 -63 -126 -213 -233 -267 -189 -27 23 -52 90 -58 159 -7 79 1
95 39 80 l28 -10 -45 82 c-25 46 -51 84 -59 85 -7 1 -47 -11 -88 -26z"/>
<path d="M814 360 c0 -11 4 -20 8 -20 4 0 8 9 8 20 0 11 -4 20 -8 20 -4 0 -8
-9 -8 -20z"/>
<path d="M2057 360 c3 -11 7 -20 8 -20 1 0 5 9 8 20 3 12 0 20 -8 20 -8 0 -11
-8 -8 -20z"/>
</g>
</svg>
