<?xml version="1.0" standalone="no"?>
<!DOCTYPE svg PUBLIC "-//W3C//DTD SVG 20010904//EN"
 "http://www.w3.org/TR/2001/REC-SVG-20010904/DTD/svg10.dtd">
<svg version="1.0" xmlns="http://www.w3.org/2000/svg"
 width="216.000000pt" height="101.000000pt" viewBox="0 0 216.000000 101.000000"
 preserveAspectRatio="xMidYMid meet">
<metadata>
Created by potrace 1.13, written by Peter Selinger 2001-2015
</metadata>
<g transform="translate(0.000000,101.000000) scale(0.100000,-0.100000)"
fill="#000000" stroke="none">
<path d="M0 505 l0 -505 1080 0 1080 0 0 505 0 505 -1080 0 -1080 0 0 -505z
m775 445 c103 -39 123 -54 161 -127 24 -46 33 -79 39 -141 6 -74 9 -81 31 -86
13 -4 24 -10 24 -15 0 -11 -136 -101 -152 -101 -7 0 -28 26 -45 58 -21 35 -33
50 -33 37 0 -11 -14 -40 -30 -65 l-30 -45 146 -3 c81 -1 149 0 153 3 3 4 5 40
5 81 l-1 74 43 0 c32 0 49 -6 64 -22 l20 -22 0 22 c0 21 5 22 74 22 50 0 76
-4 80 -12 5 -10 7 -10 12 0 4 9 40 12 129 12 108 0 125 -2 134 -17 9 -16 10
-16 11 -1 0 14 14 16 108 17 l109 1 -1 -74 c0 -41 2 -77 5 -80 3 -4 27 -3 54
0 42 6 49 11 61 41 12 28 12 38 0 68 -12 29 -20 35 -44 35 -50 0 -75 -56 -49
-110 9 -16 12 -30 7 -30 -15 0 -32 59 -25 88 15 70 86 84 118 22 l18 -35 -7
38 -6 37 36 0 c21 0 36 -5 36 -12 0 -9 3 -9 12 0 7 7 22 12 33 12 21 0 22 -4
21 -85 l-1 -85 -677 0 c-675 0 -678 0 -678 -20 0 -20 -25 -38 -37 -27 -3 4 15
40 41 80 65 106 65 107 -44 107 l-90 0 0 -45 c0 -41 2 -45 25 -45 19 0 25 5
26 23 1 18 2 18 6 4 5 -18 5 -18 19 0 14 17 15 17 5 -2 -5 -11 -17 -29 -26
-40 -9 -11 -14 -14 -10 -7 4 8 -3 12 -24 12 -28 0 -31 3 -31 30 0 68 -54 117
-79 73 -20 -37 27 -71 58 -40 10 10 12 9 11 -3 -1 -8 -2 -49 -1 -90 2 -69 3
-73 17 -55 8 11 22 29 30 40 8 11 5 3 -6 -18 -12 -21 -20 -47 -17 -57 3 -11 0
-20 -6 -21 -7 0 18 -15 55 -32 54 -26 66 -35 58 -47 -9 -13 -10 -13 -10 1 0
10 -24 25 -66 43 -37 15 -68 26 -69 24 -1 -2 -13 -23 -25 -48 -13 -25 -35 -61
-51 -81 -35 -45 -124 -106 -164 -114 -25 -4 -23 -3 8 10 49 19 126 75 153 112
12 16 31 49 44 73 12 25 28 52 34 60 9 10 11 42 8 98 l-4 82 -34 0 -33 0 5
-62 c3 -35 1 -76 -5 -93 -9 -28 -9 -28 -10 -5 l-1 24 -16 -22 c-14 -20 -24
-22 -100 -22 -70 0 -84 -3 -84 -16 0 -11 -6 -14 -22 -9 -13 4 -27 8 -33 9 -6
0 -9 -27 -9 -69 1 -49 -1 -61 -6 -40 -11 42 -11 97 -2 113 7 10 15 10 36 2 15
-5 26 -7 24 -2 -21 48 -92 162 -102 162 -7 0 -41 -11 -75 -26 -35 -14 -65 -23
-67 -21 -8 7 136 59 150 54 8 -3 32 -38 54 -78 l40 -73 8 38 c4 22 4 76 1 122
l-6 84 81 0 c83 0 118 -14 118 -46 0 -7 5 -16 11 -20 8 -5 10 1 6 18 -12 46
39 88 70 57 11 -11 201 -14 212 -4 2 3 -4 16 -13 31 -22 32 -16 39 23 26 l31
-11 2 42 c1 38 2 39 5 9 7 -52 -1 -64 -33 -52 -22 9 -25 8 -20 -5 12 -31 87
-155 94 -155 4 0 38 20 77 44 67 43 69 45 45 54 -24 9 -27 18 -37 100 -22 173
-72 224 -268 277 -31 9 -41 14 -25 14 14 1 61 -13 105 -29z m247 -564 c5 -8 8
-7 8 2 0 10 16 12 63 10 54 -3 62 -5 62 -23 0 -19 -7 -20 -127 -22 -115 -2
-128 -1 -129 15 -1 16 -2 16 -6 0 -3 -13 -15 -18 -42 -18 -35 0 -38 2 -38 28
l0 29 101 -5 c58 -3 104 -9 108 -16z m1074 8 c-3 -9 -6 -22 -6 -29 0 -11 -36
-14 -185 -13 -184 1 -185 1 -185 23 0 20 5 22 58 23 33 0 60 -5 64 -11 6 -9 8
-9 8 0 0 8 29 11 95 11 53 -1 98 2 102 6 3 3 17 6 31 6 18 0 23 -4 18 -16z"/>
<path d="M1245 578 c-3 -18 -4 -51 -3 -74 3 -35 6 -40 25 -36 20 4 21 8 16 53
-7 61 3 64 18 4 6 -25 15 -48 19 -50 5 -3 13 18 20 45 7 28 16 50 21 50 12 0
12 -23 0 -35 -5 -6 -7 -22 -4 -37 4 -20 11 -28 27 -28 19 0 21 5 21 70 l0 71
-30 -3 c-22 -2 -31 -9 -33 -25 -4 -30 -18 -29 -26 2 -5 20 -13 25 -36 25 -25
0 -30 -5 -35 -32z"/>
<path d="M305 475 l0 -115 82 0 c71 0 84 3 93 19 15 28 12 62 -6 82 -15 16
-15 20 0 41 17 24 22 14 6 -12 -6 -10 -4 -20 5 -30 7 -8 16 -28 18 -45 3 -16
4 -1 2 35 -3 64 -21 115 -47 131 -7 5 -44 9 -83 9 l-70 0 0 -115z"/>
</g>
</svg>
