<?xml version="1.0" encoding="utf-8"?>
<!-- Generator: Adobe Illustrator 19.0.1, SVG Export Plug-In . SVG Version: 6.00 Build 0)  -->
<svg version="1.1" id="Layer_1" xmlns="http://www.w3.org/2000/svg" xmlns:xlink="http://www.w3.org/1999/xlink" x="0px" y="0px"
	 viewBox="0 0 476.3 181" style="enable-background:new 0 0 476.3 181;" xml:space="preserve">
<style type="text/css">
	.st0{fill:#00DC00;}
</style>
<g>
	<g>
		<g>
			<g>
				<g>
					<path class="st0" d="M415.1,0c-36.7,0-60.9,25.2-60.9,66.8c0,51.5,36.9,66.4,63,66.4c33.3,0,52.3-22.4,52.3-22.4l-16.9-17
						c-8.9,8.1-19.4,12.9-34.9,12.9c-20.4,0-34.3-11.9-34.3-28.3H475C474.8,78.5,490.7,0,415.1,0z M383.6,56.3
						c0-22,16.7-32.7,34.7-32.7c18,0,34.3,10.9,34.3,32.7H383.6z"/>
				</g>
			</g>
		</g>
		<g>
			<path class="st0" d="M78.9,53.9c-11.7-1.4-45.6-0.2-45.6-15.5c0-9.1,14.3-14.1,27.2-14.1c20.8,0,34.7,8.3,38.7,11.1l17.6-17.6
				C111.6,13.7,92.2,0,60.5,0C31.5,0,5.6,15.1,5.6,39.3c0,37.1,44.8,37.1,63.4,38.9c11.3,1.2,21.6,2,21.6,13.1
				c0,10.3-15.9,16.1-28.2,16.1c-20,0-31.9-6.5-43.6-17L0,109c17.2,16.7,39.3,24.2,60.9,24.2c33.5,0,57.9-14.9,57.9-44.6
				C119.3,69.2,106.1,57.3,78.9,53.9z"/>
		</g>
		<g>
			<g>
				<path class="st0" d="M175.4,0c-29.1,0-48,14.9-51.5,17.8l17.6,17.6c3.6-2.8,15.5-11.1,34.1-11.1c22.4,0,28.9,8.9,28.9,19v12.5
					h-39.8c-14.7,0-43.6,3.8-43.6,36.1c0,23.8,13.7,41.2,46.2,41.2c16.3,0,28.7-5.4,37.3-15.5v12.9h28.9V45.2
					C233.5,15.5,215.1,0,175.4,0z M204.8,84.3c0,24.6-17.6,23.4-33.3,23.4c-15.9,0-26-4.2-26-15.3c0-10.3,8.3-13.7,25.4-13.7h33.9
					C204.8,78.5,204.8,82.9,204.8,84.3z"/>
			</g>
		</g>
		<path class="st0" d="M322.5,2.8V17c-9.9-11.5-21.6-17-37.7-17c-9.5,0-17,1.8-23.2,4.8c-6.5,3.2-10.9,6.7-14.5,10.7
			c-3.8,4.2-6.9,10.1-8.5,16.3c-1.8,6.1-2.4,17.6-2.4,34.9c0,16.9,0.8,28.2,2.6,34.1c1.8,6.1,4.4,11.1,8.3,15.5
			c3.4,3.8,7.5,7.7,14.1,11.1c6.3,3.2,14.3,6.1,23.6,6.1c15.5,0,28.5-5.9,37.7-16.5c0,0,0,5.9,0,7.9c0,9.5-3.2,15.7-9.3,20.4
			c-5.9,5-13.7,7.9-24.2,7.9c-9.5,0-18.6-5.2-24-8.9l-19.4,19.4c12.5,10.1,27.6,17,43.8,17.2c17.2,0.2,31.1-5.2,43.2-14.7
			c11.7-9.1,18.8-26.4,18.8-44.4V2.6h-28.9V2.8z M322.5,66.6c0,9.9-0.2,16.9-0.8,20.6c-0.8,4-2.6,7.1-5,9.7c-2,2.4-5,4.6-8.7,6.7
			c-4,2.2-8.9,3.2-14.7,3.2c-11.9,0-21.4-7.3-23.6-9.7c-2.4-2.6-4.2-6.1-4.8-10.1c-0.8-3.8-1.2-10.7-1.2-20.6
			c0-10.1,0.4-18.2,1.2-22.2c0.6-4,2.4-6.9,4.8-9.5c2.2-2.2,5-4.8,9.1-6.9c3.8-2,8.7-3.2,14.5-3.2c5.7,0,10.9,1,14.7,3
			c4,2.2,6.5,4.6,8.7,6.9c2.4,2.6,4.2,5.7,5,9.7c0.6,3.8,0.8,11.1,0.8,20.2C322.5,65.4,322.5,66,322.5,66.6L322.5,66.6L322.5,66.6z"
			/>
	</g>
</g>
</svg>
