<?xml version="1.0" encoding="UTF-8"?>
<svg width="468px" height="36px" viewBox="0 0 468 36" version="1.1" xmlns="http://www.w3.org/2000/svg" xmlns:xlink="http://www.w3.org/1999/xlink">
    <!-- Generator: Sketch 39.1 (31720) - http://www.bohemiancoding.com/sketch -->
    <title>Hungry-Hungry</title>
    <desc>Created with Sketch.</desc>
    <defs></defs>
    <g id="Hungry-Hungry-Website" stroke="none" stroke-width="1" fill="none" fill-rule="evenodd">
        <g id="Landing-Page" transform="translate(-487.000000, -231.000000)" fill="#FFFFFF">
            <g id="top-header" transform="translate(-1.000000, 70.000000)">
                <path d="M494.108352,189.65 L494.108352,181.15 C494.108352,180.883332 494.125019,180.575002 494.158352,180.225 C494.191686,179.874998 494.258352,179.566668 494.358352,179.3 C494.825021,179.166666 495.61668,179.041667 496.733352,178.925 C497.850024,178.808333 499.075012,178.716667 500.408352,178.65 C501.741692,178.583333 503.066679,178.525 504.383352,178.475 C505.700025,178.425 506.808348,178.4 507.708352,178.4 L508.208352,190.05 C508.241686,190.583336 508.350018,190.933332 508.533352,191.1 C508.716686,191.266667 509.041683,191.35 509.508352,191.35 C509.741687,191.35 509.950018,191.250001 510.133352,191.05 C510.316686,190.849999 510.475018,190.608335 510.608352,190.325 C510.741686,190.041665 510.850018,189.758335 510.933352,189.475 C511.016686,189.191665 511.058352,188.950001 511.058352,188.75 L511.158352,178.9 C511.158352,178.499998 511.325017,178.3 511.658352,178.3 C511.82502,178.3 511.975018,178.316666 512.108352,178.35 C512.241686,178.383333 512.358352,178.4 512.458352,178.4 C512.858354,178.4 513.158351,178.141669 513.358352,177.625 C513.558353,177.108331 513.658352,176.700001 513.658352,176.4 C513.658352,176.066665 513.583353,175.858334 513.433352,175.775 C513.283351,175.691666 513.07502,175.65 512.808352,175.65 C512.541684,175.65 512.266687,175.658333 511.983352,175.675 C511.700017,175.691667 511.42502,175.716666 511.158352,175.75 C511.158352,175.249997 511.166685,174.658337 511.183352,173.975 C511.200019,173.291663 511.225019,172.59167 511.258352,171.875 C511.291686,171.15833 511.341685,170.450003 511.408352,169.75 C511.475019,169.049996 511.558352,168.400003 511.658352,167.8 C511.758353,167.266664 511.875018,166.833335 512.008352,166.5 C512.141686,166.166665 512.258352,165.891668 512.358352,165.675 C512.458353,165.458332 512.550018,165.275001 512.633352,165.125 C512.716686,164.974999 512.758352,164.833334 512.758352,164.7 C512.758352,164.233331 512.425022,164 511.758352,164 C511.458351,164 511.075021,164.041666 510.608352,164.125 C510.141683,164.208334 509.683354,164.324999 509.233352,164.475 C508.78335,164.625001 508.391687,164.799999 508.058352,165 C507.725017,165.200001 507.558352,165.416665 507.558352,165.65 C507.558352,166.116669 507.608352,166.833328 507.708352,167.8 C507.808353,168.766671 507.858352,169.833327 507.858352,171 C507.858352,171.866671 507.850019,172.716662 507.833352,173.55 C507.816685,174.383337 507.791686,175.13333 507.758352,175.8 L494.458352,175.8 C494.525019,174.56666 494.566685,173.300006 494.583352,172 C494.600019,170.699993 494.608352,169.450006 494.608352,168.25 C494.641686,167.449996 494.783351,166.766669 495.033352,166.2 C495.283353,165.63333 495.408352,165.200001 495.408352,164.9 C495.408352,164.733332 495.266687,164.550001 494.983352,164.35 C494.700017,164.149999 494.358354,163.958334 493.958352,163.775 C493.55835,163.591666 493.141688,163.433334 492.708352,163.3 C492.275017,163.166666 491.908354,163.1 491.608352,163.1 C491.241684,163.1 490.891687,163.199999 490.558352,163.4 C490.225017,163.600001 489.933353,163.824999 489.683352,164.075 C489.433351,164.325001 489.233353,164.566665 489.083352,164.8 C488.933351,165.033334 488.858352,165.199999 488.858352,165.3 C488.858352,165.566668 488.966684,165.799999 489.183352,166 C489.40002,166.200001 489.650017,166.408332 489.933352,166.625 C490.216687,166.841668 490.466684,167.091665 490.683352,167.375 C490.90002,167.658335 491.008352,167.999998 491.008352,168.4 C491.041686,169.033336 491.075019,169.783329 491.108352,170.65 C491.141686,171.516671 491.166685,172.449995 491.183352,173.45 C491.200019,174.450005 491.208352,175.466661 491.208352,176.5 L491.208352,179.4 C491.208352,181.50001 491.158353,183.483324 491.058352,185.35 C490.958352,187.216676 490.908352,189.016658 490.908352,190.75 C490.908352,191.150002 490.975018,191.458332 491.108352,191.675 C491.241686,191.891668 491.491684,192 491.858352,192 C493.35836,192 494.108352,191.216674 494.108352,189.65 L494.108352,189.65 Z M530.091683,164.25 C530.091683,166.783346 530.133349,169.258321 530.216683,171.675 C530.300016,174.091679 530.433348,176.316656 530.616683,178.35 C530.800017,180.383343 531.033348,182.158326 531.316683,183.675 C531.600017,185.191674 531.941681,186.333329 532.341683,187.1 C532.708351,187.800003 533.258346,188.43333 533.991683,189 C534.72502,189.566669 535.516678,190.041665 536.366683,190.425 C537.216687,190.808335 538.075012,191.099999 538.941683,191.3 C539.808354,191.500001 540.575013,191.6 541.241683,191.6 C541.575018,191.6 541.908348,191.583333 542.241683,191.55 C542.575018,191.516666 542.925014,191.433334 543.291683,191.3 C544.725023,190.73333 546.166675,189.875006 547.616683,188.725 C549.06669,187.574994 550.191679,186.016676 550.991683,184.05 C551.191684,183.516664 551.408348,182.741672 551.641683,181.725 C551.875017,180.708328 552.100015,179.575006 552.316683,178.325 C552.53335,177.074994 552.741682,175.766673 552.941683,174.4 C553.141684,173.033326 553.316682,171.741673 553.466683,170.525 C553.616683,169.308327 553.741682,168.225005 553.841683,167.275 C553.941683,166.324995 553.991683,165.650002 553.991683,165.25 C553.991683,164.68333 553.733352,164.258335 553.216683,163.975 C552.700013,163.691665 552.125019,163.55 551.491683,163.55 C550.958347,163.55 550.508351,163.633332 550.141683,163.8 C549.775014,163.966667 549.591683,164.266664 549.591683,164.7 C549.591683,164.866667 549.625016,165.083332 549.691683,165.35 C549.75835,165.616668 549.825016,165.999997 549.891683,166.5 C549.95835,167.000002 550.025016,167.649996 550.091683,168.45 C550.15835,169.250004 550.191683,170.249994 550.191683,171.45 C550.191683,172.350004 550.166683,173.399994 550.116683,174.6 C550.066682,175.800006 549.95835,177.04166 549.791683,178.325 C549.625015,179.60834 549.366684,180.86666 549.016683,182.1 C548.666681,183.333339 548.191686,184.441662 547.591683,185.425 C546.99168,186.408338 546.241687,187.199997 545.341683,187.8 C544.441678,188.400003 543.358356,188.7 542.091683,188.7 C541.49168,188.7 540.82502,188.583334 540.091683,188.35 C539.358346,188.116665 538.650019,187.800002 537.966683,187.4 C537.283346,186.999998 536.658352,186.541669 536.091683,186.025 C535.525013,185.508331 535.125017,184.966669 534.891683,184.4 C534.325013,183.16666 533.98335,181.758341 533.866683,180.175 C533.750015,178.591659 533.691683,176.733344 533.691683,174.6 C533.691683,172.566656 533.783348,170.966672 533.966683,169.8 C534.150017,168.633327 534.341682,167.733336 534.541683,167.1 C534.741684,166.466663 534.933348,166.008335 535.116683,165.725 C535.300017,165.441665 535.391683,165.166668 535.391683,164.9 C535.391683,164.633332 535.216684,164.341668 534.866683,164.025 C534.516681,163.708332 534.116685,163.408335 533.666683,163.125 C533.21668,162.841665 532.766685,162.600001 532.316683,162.4 C531.86668,162.199999 531.525017,162.1 531.291683,162.1 C530.79168,162.1 530.466683,162.266665 530.316683,162.6 C530.166682,162.933335 530.091683,163.483329 530.091683,164.25 L530.091683,164.25 Z M571.225013,173.6 L570.625013,185.95 C570.558346,186.950005 570.425014,187.766663 570.225013,188.4 C570.025012,189.033336 569.816681,189.541665 569.600013,189.925 C569.383345,190.308335 569.191681,190.624999 569.025013,190.875 C568.858346,191.125001 568.775013,191.383332 568.775013,191.65 C568.775013,192.116669 569.091677,192.35 569.725013,192.35 C570.091682,192.35 570.483344,192.3 570.900013,192.2 C571.316682,192.099999 571.925009,191.950001 572.725013,191.75 C573.091682,191.649999 573.333346,191.458335 573.450013,191.175 C573.56668,190.891665 573.625013,190.616668 573.625013,190.35 C573.625013,189.949998 573.608347,189.375004 573.575013,188.625 C573.54168,187.874996 573.525013,187.133337 573.525013,186.4 C573.525013,185.566662 573.533346,184.541673 573.550013,183.325 C573.56668,182.108327 573.583346,180.800007 573.600013,179.4 C573.61668,177.999993 573.658346,176.558341 573.725013,175.075 C573.79168,173.591659 573.875013,172.150007 573.975013,170.75 C574.475016,171.316669 575.216675,172.099995 576.200013,173.1 C577.183351,174.100005 578.28334,175.24166 579.500013,176.525 C580.716686,177.80834 582.016673,179.191659 583.400013,180.675 C584.783353,182.158341 586.125007,183.666659 587.425013,185.2 C588.025016,185.900003 588.483345,186.599996 588.800013,187.3 C589.116681,188.000003 589.358346,188.63333 589.525013,189.2 C589.691681,189.766669 589.833346,190.233331 589.950013,190.6 C590.06668,190.966668 590.208346,191.15 590.375013,191.15 C590.508347,191.15 590.758345,191.041668 591.125013,190.825 C591.491682,190.608332 591.866678,190.341668 592.250013,190.025 C592.633348,189.708332 592.975012,189.358335 593.275013,188.975 C593.575015,188.591665 593.725013,188.233335 593.725013,187.9 C593.725013,186.833328 593.708347,185.825005 593.675013,184.875 C593.64168,183.924995 593.625013,183.033337 593.625013,182.2 C593.625013,179.466653 593.708346,177.12501 593.875013,175.175 C594.041681,173.22499 594.225012,171.600006 594.425013,170.3 C594.625014,168.999993 594.808346,167.96667 594.975013,167.2 C595.141681,166.433329 595.225013,165.883335 595.225013,165.55 C595.225013,165.183331 595.141681,164.858335 594.975013,164.575 C594.808346,164.291665 594.491682,164.15 594.025013,164.15 C593.691678,164.15 593.325015,164.166666 592.925013,164.2 C592.525011,164.233333 592.141682,164.299999 591.775013,164.4 C591.408345,164.5 591.100014,164.641666 590.850013,164.825 C590.600012,165.008334 590.458347,165.249998 590.425013,165.55 C590.425013,165.783334 590.475013,166.099998 590.575013,166.5 C590.675014,166.900002 590.775013,167.43333 590.875013,168.1 C590.975014,168.76667 591.075013,169.583328 591.175013,170.55 C591.275014,171.516671 591.325013,172.649993 591.325013,173.95 C591.325013,175.583341 591.26668,177.174992 591.150013,178.725 C591.033346,180.275008 590.841681,181.899991 590.575013,183.6 C590.108344,183.199998 589.233353,182.33334 587.950013,181 C586.666673,179.66666 585.150022,178.050009 583.400013,176.15 C581.650004,174.24999 579.758357,172.150011 577.725013,169.85 C575.69167,167.549988 573.708356,165.250011 571.775013,162.95 C571.508345,162.616665 571.283347,162.391667 571.100013,162.275 C570.916679,162.158333 570.725014,162.1 570.525013,162.1 C570.358346,162.1 570.183347,162.133333 570.000013,162.2 C569.816679,162.266667 569.591681,162.416665 569.325013,162.65 L567.525013,164.1 C567.158345,164.366668 566.975013,164.616665 566.975013,164.85 C566.975013,165.283335 567.200011,165.583332 567.650013,165.75 C568.100015,165.916667 568.60001,166.108332 569.150013,166.325 C569.700016,166.541668 570.200011,166.899997 570.650013,167.4 C571.100015,167.900002 571.325013,168.716661 571.325013,169.85 C571.325013,170.483336 571.31668,171.10833 571.300013,171.725 C571.283346,172.34167 571.258347,172.966663 571.225013,173.6 L571.225013,173.6 Z M628.108343,182.35 L627.708343,185.35 C627.641676,185.750002 627.450012,186.149998 627.133343,186.55 C626.816675,186.950002 626.383346,187.316665 625.833343,187.65 C625.283341,187.983335 624.633347,188.258332 623.883343,188.475 C623.13334,188.691668 622.308348,188.8 621.408343,188.8 C620.375005,188.8 619.408348,188.683334 618.508343,188.45 C617.608339,188.216665 616.81668,187.79167 616.133343,187.175 C615.450007,186.55833 614.916679,185.683339 614.533343,184.55 C614.150008,183.416661 613.958343,181.950009 613.958343,180.15 C613.958343,178.549992 614.275007,176.858342 614.908343,175.075 C615.54168,173.291658 616.408338,171.650007 617.508343,170.15 C618.608349,168.649992 619.883336,167.408338 621.333343,166.425 C622.783351,165.441662 624.325002,164.95 625.958343,164.95 C626.391679,164.95 626.758342,164.991666 627.058343,165.075 C627.358345,165.158334 627.675008,165.349998 628.008343,165.65 C628.74168,166.31667 629.233342,166.749999 629.483343,166.95 C629.733345,167.150001 629.975009,167.25 630.208343,167.25 C630.375011,167.25 630.591675,167.191667 630.858343,167.075 C631.125011,166.958333 631.391675,166.808334 631.658343,166.625 C631.925011,166.441666 632.158342,166.225001 632.358343,165.975 C632.558344,165.724999 632.658343,165.483334 632.658343,165.25 C632.658343,164.349995 632.158348,163.691669 631.158343,163.275 C630.158338,162.858331 628.708353,162.65 626.808343,162.65 C623.941662,162.65 621.47502,163.141662 619.408343,164.125 C617.341666,165.108338 615.63335,166.383325 614.283343,167.95 C612.933337,169.516674 611.94168,171.29999 611.308343,173.3 C610.675007,175.30001 610.358343,177.333323 610.358343,179.4 C610.358343,180.433338 610.533342,181.633326 610.883343,183 C611.233345,184.366673 611.841672,185.674994 612.708343,186.925 C613.575014,188.175006 614.750003,189.233329 616.233343,190.1 C617.716684,190.966671 619.608332,191.4 621.908343,191.4 C622.375012,191.4 622.875007,191.366667 623.408343,191.3 C623.941679,191.233333 624.441674,191.166667 624.908343,191.1 C625.375012,191.033333 625.783342,190.966667 626.133343,190.9 C626.483345,190.833333 626.725009,190.8 626.858343,190.8 C627.725014,190.8 628.225009,191.233329 628.358343,192.1 C628.491677,192.966671 628.616676,193.666664 628.733343,194.2 C628.850011,194.733336 628.975009,195.141665 629.108343,195.425 C629.241677,195.708335 629.375009,195.899999 629.508343,196 C629.641677,196.1 629.808342,196.15 630.008343,196.15 C630.608346,196.15 631.000009,196.050001 631.183343,195.85 C631.366678,195.649999 631.458343,195.316669 631.458343,194.85 C631.458343,193.883328 631.383344,192.70834 631.233343,191.325 C631.083343,189.94166 631.008343,188.133344 631.008343,185.9 C631.008343,184.833328 631.00001,184.008336 630.983343,183.425 C630.966677,182.841664 630.916677,182.408335 630.833343,182.125 C630.75001,181.841665 630.641677,181.666667 630.508343,181.6 C630.375009,181.533333 630.208344,181.5 630.008343,181.5 C629.275006,181.5 628.791678,181.566666 628.558343,181.7 C628.325009,181.833334 628.17501,182.049998 628.108343,182.35 L628.108343,182.35 Z M651.591674,173.95 C651.591674,173.549998 651.600007,172.99167 651.616674,172.275 C651.633341,171.55833 651.675007,170.775004 651.741674,169.925 C651.808341,169.074996 651.891673,168.208338 651.991674,167.325 C652.091674,166.441662 652.225006,165.61667 652.391674,164.85 C652.425007,164.683332 652.591672,164.533334 652.891674,164.4 C653.191675,164.266666 653.533339,164.15 653.916674,164.05 C654.300009,163.949999 654.675005,163.875 655.041674,163.825 C655.408342,163.775 655.65834,163.75 655.791674,163.75 C655.925008,163.75 656.116673,163.783333 656.366674,163.85 C656.616675,163.916667 656.883339,164.008333 657.166674,164.125 C657.450009,164.241667 657.708339,164.366666 657.941674,164.5 C658.175008,164.633334 658.325007,164.749999 658.391674,164.85 C658.591675,165.116668 658.766673,165.399998 658.916674,165.7 C659.066675,166.000001 659.141674,166.383331 659.141674,166.85 C659.141674,167.983339 658.958342,169.099994 658.591674,170.2 C658.391673,170.700002 658.141675,171.124998 657.841674,171.475 C657.541672,171.825002 657.208342,172.124999 656.841674,172.375 C656.475005,172.625001 656.116676,172.833332 655.766674,173 C655.416672,173.166667 655.091675,173.316666 654.791674,173.45 C653.925003,173.850002 653.308342,174.133332 652.941674,174.3 C652.575005,174.466667 652.308341,174.55 652.141674,174.55 C652.00834,174.55 651.883341,174.516667 651.766674,174.45 C651.650007,174.383333 651.591674,174.216668 651.591674,173.95 L651.591674,173.95 Z M652.141674,161.4 L647.791674,162.55 C647.125004,162.716667 646.791674,163.016664 646.791674,163.45 C646.791674,164.050003 647.14167,164.549998 647.841674,164.95 C647.975008,165.05 648.08334,165.424997 648.166674,166.075 C648.250008,166.725003 648.316674,167.474996 648.366674,168.325 C648.416674,169.175004 648.450007,170.033329 648.466674,170.9 C648.483341,171.766671 648.491674,172.48333 648.491674,173.05 C648.491674,174.316673 648.475007,175.708326 648.441674,177.225 C648.40834,178.741674 648.366674,180.183326 648.316674,181.55 C648.266674,182.916673 648.225007,184.108328 648.191674,185.125 C648.15834,186.141672 648.141674,186.783332 648.141674,187.05 C648.10834,187.683336 648.033341,188.216664 647.916674,188.65 C647.800007,189.083335 647.683341,189.441665 647.566674,189.725 C647.450007,190.008335 647.350008,190.233332 647.266674,190.4 C647.18334,190.566667 647.141674,190.733332 647.141674,190.9 C647.141674,191.100001 647.275006,191.291666 647.541674,191.475 C647.808342,191.658334 648.133339,191.808333 648.516674,191.925 C648.900009,192.041667 649.291672,192.141666 649.691674,192.225 C650.091676,192.308334 650.408339,192.35 650.641674,192.35 C651.108343,192.35 651.43334,192.283334 651.616674,192.15 C651.800008,192.016666 651.891674,191.783335 651.891674,191.45 C651.891674,191.183332 651.866674,190.883335 651.816674,190.55 C651.766674,190.216665 651.716674,189.775003 651.666674,189.225 C651.616674,188.674997 651.566674,187.966671 651.516674,187.1 C651.466674,186.233329 651.441674,185.116673 651.441674,183.75 L651.441674,182.4 C651.441674,181.599996 651.45834,180.791671 651.491674,179.975 C651.525007,179.158329 651.575007,178.41667 651.641674,177.75 C652.641679,177.950001 653.916666,178.483329 655.466674,179.35 C657.016682,180.216671 658.674998,181.233327 660.441674,182.4 C662.208349,183.566672 663.999998,184.81666 665.816674,186.15 C667.63335,187.48334 669.316666,188.699994 670.866674,189.8 C672.416682,190.900005 673.758335,191.816663 674.891674,192.55 C676.025013,193.283337 676.775005,193.65 677.141674,193.65 C677.341675,193.65 677.633339,193.525001 678.016674,193.275 C678.400009,193.024999 678.783339,192.733335 679.166674,192.4 C679.550009,192.066665 679.883339,191.733335 680.166674,191.4 C680.450009,191.066665 680.591674,190.816667 680.591674,190.65 C680.591674,190.416665 680.533341,190.233334 680.416674,190.1 C680.300007,189.966666 680.175008,189.9 680.041674,189.9 C678.675,189.9 677.308347,189.51667 675.941674,188.75 C675.408338,188.416665 674.725011,188.000002 673.891674,187.5 C673.058336,186.999997 672.150012,186.433336 671.166674,185.8 C670.183336,185.166663 669.150013,184.508337 668.066674,183.825 C666.983335,183.141663 665.908346,182.450003 664.841674,181.75 C663.408333,180.783328 662.075013,179.900004 660.841674,179.1 C659.608334,178.299996 658.541678,177.616669 657.641674,177.05 C656.741669,176.48333 656.158342,176.133334 655.891674,176 C655.625006,175.866666 655.491674,175.75 655.491674,175.65 C655.491674,175.549999 655.575006,175.458334 655.741674,175.375 C655.908341,175.291666 656.39167,175.116668 657.191674,174.85 C657.791677,174.649999 658.44167,174.375002 659.141674,174.025 C659.841677,173.674998 660.500004,173.216669 661.116674,172.65 C661.733344,172.08333 662.241672,171.375004 662.641674,170.525 C663.041676,169.674996 663.241674,168.650006 663.241674,167.45 C663.241674,166.683329 663.008343,165.925004 662.541674,165.175 C662.075005,164.424996 661.441678,163.750003 660.641674,163.15 C659.84167,162.549997 658.900013,162.066668 657.816674,161.7 C656.733335,161.333331 655.558347,161.15 654.291674,161.15 C653.758338,161.15 653.341675,161.175 653.041674,161.225 C652.741672,161.275 652.441675,161.333333 652.141674,161.4 L652.141674,161.4 Z M689.925004,196.15 C690.225006,196.15 690.541669,195.883336 690.875004,195.35 C691.208339,194.816664 691.558336,194.141671 691.925004,193.325 C692.291673,192.508329 692.666669,191.591672 693.050004,190.575 C693.43334,189.558328 693.800003,188.583338 694.150004,187.65 C694.500006,186.716662 694.81667,185.875004 695.100004,185.125 C695.383339,184.374996 695.625003,183.833335 695.825004,183.5 L704.425004,168.25 C704.758339,167.68333 705.058336,167.233335 705.325004,166.9 C705.591672,166.566665 705.81667,166.291668 706.000004,166.075 C706.183339,165.858332 706.325004,165.683334 706.425004,165.55 C706.525005,165.416666 706.575004,165.283334 706.575004,165.15 C706.575004,164.883332 706.425006,164.633334 706.125004,164.4 C705.825003,164.166665 705.475006,163.966667 705.075004,163.8 C704.675002,163.633332 704.266673,163.491667 703.850004,163.375 C703.433336,163.258333 703.108339,163.2 702.875004,163.2 C702.508336,163.2 702.250005,163.291666 702.100004,163.475 C701.950004,163.658334 701.875004,164.08333 701.875004,164.75 C701.875004,165.41667 701.625007,166.341661 701.125004,167.525 C700.625002,168.708339 699.991675,170.033326 699.225004,171.5 C698.458334,172.966674 697.625009,174.524992 696.725004,176.175 C695.825,177.825008 694.975008,179.449992 694.175004,181.05 C693.775002,180.049995 693.108342,178.841674 692.175004,177.425 C691.241666,176.008326 690.258343,174.550007 689.225004,173.05 C688.191666,171.549992 687.216676,170.091674 686.300004,168.675 C685.383333,167.258326 684.741673,166.066671 684.375004,165.1 C684.24167,164.733331 684.150005,164.375002 684.100004,164.025 C684.050004,163.674998 684.000005,163.358335 683.950004,163.075 C683.900004,162.791665 683.825005,162.558334 683.725004,162.375 C683.625004,162.191666 683.458339,162.1 683.225004,162.1 C682.99167,162.1 682.65834,162.216665 682.225004,162.45 C681.791669,162.683334 681.375006,162.958332 680.975004,163.275 C680.575002,163.591668 680.225006,163.924998 679.925004,164.275 C679.625003,164.625002 679.475004,164.916665 679.475004,165.15 C679.475004,165.450001 679.608336,165.808331 679.875004,166.225 C680.141672,166.641669 680.525002,167.15833 681.025004,167.775 C681.525007,168.39167 682.150001,169.158329 682.900004,170.075 C683.650008,170.991671 684.508333,172.11666 685.475004,173.45 C686.908345,175.45001 688.05,177.06666 688.900004,178.3 C689.750009,179.533339 690.391669,180.524996 690.825004,181.275 C691.25834,182.025004 691.54167,182.608331 691.675004,183.025 C691.808338,183.441669 691.875004,183.849998 691.875004,184.25 C691.875004,185.216671 691.725006,186.183328 691.425004,187.15 C691.125003,188.116671 690.75834,188.999996 690.325004,189.8 C689.891669,190.600004 689.416674,191.266664 688.900004,191.8 C688.383335,192.333336 687.891673,192.649999 687.425004,192.75 C686.925002,192.85 686.616672,192.974999 686.500004,193.125 C686.383337,193.275001 686.325004,193.449999 686.325004,193.65 C686.325004,193.816667 686.458336,194.033332 686.725004,194.3 C686.991672,194.566668 687.316669,194.841665 687.700004,195.125 C688.08334,195.408335 688.483336,195.649999 688.900004,195.85 C689.316673,196.050001 689.658336,196.15 689.925004,196.15 L689.925004,196.15 Z M714.558335,179.15 C714.558335,179.416668 714.716667,179.599999 715.033335,179.7 C715.350003,179.8 715.741666,179.85 716.208335,179.85 C718.54168,179.85 720.383328,179.8 721.733335,179.7 C723.083342,179.599999 724.074998,179.55 724.708335,179.55 C724.841669,179.55 725.000001,179.491667 725.183335,179.375 C725.366669,179.258333 725.550001,179.125001 725.733335,178.975 C725.916669,178.824999 726.066668,178.666667 726.183335,178.5 C726.300002,178.333332 726.358335,178.216667 726.358335,178.15 C726.358335,178.083333 726.341668,177.966667 726.308335,177.8 C726.275001,177.633332 726.233335,177.458334 726.183335,177.275 C726.133335,177.091666 726.058335,176.933334 725.958335,176.8 C725.858334,176.666666 725.725002,176.6 725.558335,176.6 C725.158333,176.6 724.550006,176.658333 723.733335,176.775 C722.916664,176.891667 722.00834,176.95 721.008335,176.95 C720.274998,176.95 719.666671,176.916667 719.183335,176.85 C718.699999,176.783333 718.308336,176.7 718.008335,176.6 C717.708333,176.499999 717.466669,176.416667 717.283335,176.35 C717.100001,176.283333 716.941669,176.25 716.808335,176.25 C716.508333,176.25 716.225003,176.374999 715.958335,176.625 C715.691667,176.875001 715.458336,177.166665 715.258335,177.5 C715.058334,177.833335 714.891669,178.158332 714.758335,178.475 C714.625001,178.791668 714.558335,179.016666 714.558335,179.15 L714.558335,179.15 Z M742.591665,189.65 L742.591665,181.15 C742.591665,180.883332 742.608332,180.575002 742.641665,180.225 C742.674999,179.874998 742.741665,179.566668 742.841665,179.3 C743.308334,179.166666 744.099993,179.041667 745.216665,178.925 C746.333337,178.808333 747.558325,178.716667 748.891665,178.65 C750.225005,178.583333 751.549992,178.525 752.866665,178.475 C754.183338,178.425 755.291661,178.4 756.191665,178.4 L756.691665,190.05 C756.724999,190.583336 756.833331,190.933332 757.016665,191.1 C757.199999,191.266667 757.524996,191.35 757.991665,191.35 C758.225,191.35 758.433331,191.250001 758.616665,191.05 C758.799999,190.849999 758.958331,190.608335 759.091665,190.325 C759.224999,190.041665 759.333331,189.758335 759.416665,189.475 C759.499999,189.191665 759.541665,188.950001 759.541665,188.75 L759.641665,178.9 C759.641665,178.499998 759.80833,178.3 760.141665,178.3 C760.308333,178.3 760.458331,178.316666 760.591665,178.35 C760.724999,178.383333 760.841665,178.4 760.941665,178.4 C761.341667,178.4 761.641664,178.141669 761.841665,177.625 C762.041666,177.108331 762.141665,176.700001 762.141665,176.4 C762.141665,176.066665 762.066666,175.858334 761.916665,175.775 C761.766664,175.691666 761.558333,175.65 761.291665,175.65 C761.024997,175.65 760.75,175.658333 760.466665,175.675 C760.18333,175.691667 759.908333,175.716666 759.641665,175.75 C759.641665,175.249997 759.649998,174.658337 759.666665,173.975 C759.683332,173.291663 759.708332,172.59167 759.741665,171.875 C759.774999,171.15833 759.824998,170.450003 759.891665,169.75 C759.958332,169.049996 760.041665,168.400003 760.141665,167.8 C760.241666,167.266664 760.358331,166.833335 760.491665,166.5 C760.624999,166.166665 760.741665,165.891668 760.841665,165.675 C760.941666,165.458332 761.033331,165.275001 761.116665,165.125 C761.199999,164.974999 761.241665,164.833334 761.241665,164.7 C761.241665,164.233331 760.908335,164 760.241665,164 C759.941664,164 759.558334,164.041666 759.091665,164.125 C758.624996,164.208334 758.166667,164.324999 757.716665,164.475 C757.266663,164.625001 756.875,164.799999 756.541665,165 C756.20833,165.200001 756.041665,165.416665 756.041665,165.65 C756.041665,166.116669 756.091665,166.833328 756.191665,167.8 C756.291666,168.766671 756.341665,169.833327 756.341665,171 C756.341665,171.866671 756.333332,172.716662 756.316665,173.55 C756.299998,174.383337 756.274999,175.13333 756.241665,175.8 L742.941665,175.8 C743.008332,174.56666 743.049998,173.300006 743.066665,172 C743.083332,170.699993 743.091665,169.450006 743.091665,168.25 C743.124999,167.449996 743.266664,166.766669 743.516665,166.2 C743.766666,165.63333 743.891665,165.200001 743.891665,164.9 C743.891665,164.733332 743.75,164.550001 743.466665,164.35 C743.18333,164.149999 742.841667,163.958334 742.441665,163.775 C742.041663,163.591666 741.625001,163.433334 741.191665,163.3 C740.75833,163.166666 740.391667,163.1 740.091665,163.1 C739.724997,163.1 739.375,163.199999 739.041665,163.4 C738.70833,163.600001 738.416666,163.824999 738.166665,164.075 C737.916664,164.325001 737.716666,164.566665 737.566665,164.8 C737.416664,165.033334 737.341665,165.199999 737.341665,165.3 C737.341665,165.566668 737.449997,165.799999 737.666665,166 C737.883333,166.200001 738.13333,166.408332 738.416665,166.625 C738.7,166.841668 738.949997,167.091665 739.166665,167.375 C739.383333,167.658335 739.491665,167.999998 739.491665,168.4 C739.524999,169.033336 739.558332,169.783329 739.591665,170.65 C739.624999,171.516671 739.649998,172.449995 739.666665,173.45 C739.683332,174.450005 739.691665,175.466661 739.691665,176.5 L739.691665,179.4 C739.691665,181.50001 739.641666,183.483324 739.541665,185.35 C739.441665,187.216676 739.391665,189.016658 739.391665,190.75 C739.391665,191.150002 739.458331,191.458332 739.591665,191.675 C739.724999,191.891668 739.974997,192 740.341665,192 C741.841673,192 742.591665,191.216674 742.591665,189.65 L742.591665,189.65 Z M778.574996,164.25 C778.574996,166.783346 778.616662,169.258321 778.699996,171.675 C778.783329,174.091679 778.916661,176.316656 779.099996,178.35 C779.28333,180.383343 779.516661,182.158326 779.799996,183.675 C780.08333,185.191674 780.424994,186.333329 780.824996,187.1 C781.191664,187.800003 781.741659,188.43333 782.474996,189 C783.208333,189.566669 783.999991,190.041665 784.849996,190.425 C785.7,190.808335 786.558325,191.099999 787.424996,191.3 C788.291667,191.500001 789.058326,191.6 789.724996,191.6 C790.058331,191.6 790.391661,191.583333 790.724996,191.55 C791.058331,191.516666 791.408327,191.433334 791.774996,191.3 C793.208336,190.73333 794.649988,189.875006 796.099996,188.725 C797.550003,187.574994 798.674992,186.016676 799.474996,184.05 C799.674997,183.516664 799.891661,182.741672 800.124996,181.725 C800.35833,180.708328 800.583328,179.575006 800.799996,178.325 C801.016663,177.074994 801.224995,175.766673 801.424996,174.4 C801.624997,173.033326 801.799995,171.741673 801.949996,170.525 C802.099996,169.308327 802.224995,168.225005 802.324996,167.275 C802.424996,166.324995 802.474996,165.650002 802.474996,165.25 C802.474996,164.68333 802.216665,164.258335 801.699996,163.975 C801.183326,163.691665 800.608332,163.55 799.974996,163.55 C799.44166,163.55 798.991664,163.633332 798.624996,163.8 C798.258327,163.966667 798.074996,164.266664 798.074996,164.7 C798.074996,164.866667 798.108329,165.083332 798.174996,165.35 C798.241663,165.616668 798.308329,165.999997 798.374996,166.5 C798.441663,167.000002 798.508329,167.649996 798.574996,168.45 C798.641663,169.250004 798.674996,170.249994 798.674996,171.45 C798.674996,172.350004 798.649996,173.399994 798.599996,174.6 C798.549995,175.800006 798.441663,177.04166 798.274996,178.325 C798.108328,179.60834 797.849997,180.86666 797.499996,182.1 C797.149994,183.333339 796.674999,184.441662 796.074996,185.425 C795.474993,186.408338 794.725,187.199997 793.824996,187.8 C792.924991,188.400003 791.841669,188.7 790.574996,188.7 C789.974993,188.7 789.308333,188.583334 788.574996,188.35 C787.841659,188.116665 787.133332,187.800002 786.449996,187.4 C785.766659,186.999998 785.141665,186.541669 784.574996,186.025 C784.008326,185.508331 783.60833,184.966669 783.374996,184.4 C782.808326,183.16666 782.466663,181.758341 782.349996,180.175 C782.233328,178.591659 782.174996,176.733344 782.174996,174.6 C782.174996,172.566656 782.266661,170.966672 782.449996,169.8 C782.63333,168.633327 782.824995,167.733336 783.024996,167.1 C783.224997,166.466663 783.416661,166.008335 783.599996,165.725 C783.78333,165.441665 783.874996,165.166668 783.874996,164.9 C783.874996,164.633332 783.699997,164.341668 783.349996,164.025 C782.999994,163.708332 782.599998,163.408335 782.149996,163.125 C781.699993,162.841665 781.249998,162.600001 780.799996,162.4 C780.349993,162.199999 780.00833,162.1 779.774996,162.1 C779.274993,162.1 778.949996,162.266665 778.799996,162.6 C778.649995,162.933335 778.574996,163.483329 778.574996,164.25 L778.574996,164.25 Z M819.708326,173.6 L819.108326,185.95 C819.041659,186.950005 818.908327,187.766663 818.708326,188.4 C818.508325,189.033336 818.299994,189.541665 818.083326,189.925 C817.866658,190.308335 817.674994,190.624999 817.508326,190.875 C817.341659,191.125001 817.258326,191.383332 817.258326,191.65 C817.258326,192.116669 817.57499,192.35 818.208326,192.35 C818.574995,192.35 818.966657,192.3 819.383326,192.2 C819.799995,192.099999 820.408322,191.950001 821.208326,191.75 C821.574995,191.649999 821.816659,191.458335 821.933326,191.175 C822.049993,190.891665 822.108326,190.616668 822.108326,190.35 C822.108326,189.949998 822.09166,189.375004 822.058326,188.625 C822.024993,187.874996 822.008326,187.133337 822.008326,186.4 C822.008326,185.566662 822.016659,184.541673 822.033326,183.325 C822.049993,182.108327 822.066659,180.800007 822.083326,179.4 C822.099993,177.999993 822.141659,176.558341 822.208326,175.075 C822.274993,173.591659 822.358326,172.150007 822.458326,170.75 C822.958329,171.316669 823.699988,172.099995 824.683326,173.1 C825.666664,174.100005 826.766653,175.24166 827.983326,176.525 C829.199999,177.80834 830.499986,179.191659 831.883326,180.675 C833.266666,182.158341 834.60832,183.666659 835.908326,185.2 C836.508329,185.900003 836.966658,186.599996 837.283326,187.3 C837.599994,188.000003 837.841659,188.63333 838.008326,189.2 C838.174994,189.766669 838.316659,190.233331 838.433326,190.6 C838.549993,190.966668 838.691659,191.15 838.858326,191.15 C838.99166,191.15 839.241658,191.041668 839.608326,190.825 C839.974995,190.608332 840.349991,190.341668 840.733326,190.025 C841.116661,189.708332 841.458325,189.358335 841.758326,188.975 C842.058328,188.591665 842.208326,188.233335 842.208326,187.9 C842.208326,186.833328 842.19166,185.825005 842.158326,184.875 C842.124993,183.924995 842.108326,183.033337 842.108326,182.2 C842.108326,179.466653 842.191659,177.12501 842.358326,175.175 C842.524994,173.22499 842.708325,171.600006 842.908326,170.3 C843.108327,168.999993 843.291659,167.96667 843.458326,167.2 C843.624994,166.433329 843.708326,165.883335 843.708326,165.55 C843.708326,165.183331 843.624994,164.858335 843.458326,164.575 C843.291659,164.291665 842.974995,164.15 842.508326,164.15 C842.174991,164.15 841.808328,164.166666 841.408326,164.2 C841.008324,164.233333 840.624995,164.299999 840.258326,164.4 C839.891658,164.5 839.583327,164.641666 839.333326,164.825 C839.083325,165.008334 838.94166,165.249998 838.908326,165.55 C838.908326,165.783334 838.958326,166.099998 839.058326,166.5 C839.158327,166.900002 839.258326,167.43333 839.358326,168.1 C839.458327,168.76667 839.558326,169.583328 839.658326,170.55 C839.758327,171.516671 839.808326,172.649993 839.808326,173.95 C839.808326,175.583341 839.749993,177.174992 839.633326,178.725 C839.516659,180.275008 839.324994,181.899991 839.058326,183.6 C838.591657,183.199998 837.716666,182.33334 836.433326,181 C835.149986,179.66666 833.633335,178.050009 831.883326,176.15 C830.133317,174.24999 828.24167,172.150011 826.208326,169.85 C824.174983,167.549988 822.191669,165.250011 820.258326,162.95 C819.991658,162.616665 819.76666,162.391667 819.583326,162.275 C819.399992,162.158333 819.208327,162.1 819.008326,162.1 C818.841659,162.1 818.66666,162.133333 818.483326,162.2 C818.299992,162.266667 818.074994,162.416665 817.808326,162.65 L816.008326,164.1 C815.641658,164.366668 815.458326,164.616665 815.458326,164.85 C815.458326,165.283335 815.683324,165.583332 816.133326,165.75 C816.583328,165.916667 817.083323,166.108332 817.633326,166.325 C818.183329,166.541668 818.683324,166.899997 819.133326,167.4 C819.583328,167.900002 819.808326,168.716661 819.808326,169.85 C819.808326,170.483336 819.799993,171.10833 819.783326,171.725 C819.766659,172.34167 819.74166,172.966663 819.708326,173.6 L819.708326,173.6 Z M876.591657,182.35 L876.191657,185.35 C876.12499,185.750002 875.933325,186.149998 875.616657,186.55 C875.299988,186.950002 874.866659,187.316665 874.316657,187.65 C873.766654,187.983335 873.11666,188.258332 872.366657,188.475 C871.616653,188.691668 870.791661,188.8 869.891657,188.8 C868.858318,188.8 867.891661,188.683334 866.991657,188.45 C866.091652,188.216665 865.299993,187.79167 864.616657,187.175 C863.93332,186.55833 863.399992,185.683339 863.016657,184.55 C862.633321,183.416661 862.441657,181.950009 862.441657,180.15 C862.441657,178.549992 862.75832,176.858342 863.391657,175.075 C864.024993,173.291658 864.891651,171.650007 865.991657,170.15 C867.091662,168.649992 868.366649,167.408338 869.816657,166.425 C871.266664,165.441662 872.808315,164.95 874.441657,164.95 C874.874992,164.95 875.241655,164.991666 875.541657,165.075 C875.841658,165.158334 876.158322,165.349998 876.491657,165.65 C877.224994,166.31667 877.716655,166.749999 877.966657,166.95 C878.216658,167.150001 878.458322,167.25 878.691657,167.25 C878.858324,167.25 879.074989,167.191667 879.341657,167.075 C879.608325,166.958333 879.874989,166.808334 880.141657,166.625 C880.408325,166.441666 880.641656,166.225001 880.841657,165.975 C881.041658,165.724999 881.141657,165.483334 881.141657,165.25 C881.141657,164.349995 880.641662,163.691669 879.641657,163.275 C878.641652,162.858331 877.191666,162.65 875.291657,162.65 C872.424976,162.65 869.958334,163.141662 867.891657,164.125 C865.82498,165.108338 864.116663,166.383325 862.766657,167.95 C861.41665,169.516674 860.424993,171.29999 859.791657,173.3 C859.15832,175.30001 858.841657,177.333323 858.841657,179.4 C858.841657,180.433338 859.016655,181.633326 859.366657,183 C859.716658,184.366673 860.324986,185.674994 861.191657,186.925 C862.058328,188.175006 863.233316,189.233329 864.716657,190.1 C866.199997,190.966671 868.091645,191.4 870.391657,191.4 C870.858326,191.4 871.358321,191.366667 871.891657,191.3 C872.424993,191.233333 872.924988,191.166667 873.391657,191.1 C873.858326,191.033333 874.266655,190.966667 874.616657,190.9 C874.966658,190.833333 875.208323,190.8 875.341657,190.8 C876.208328,190.8 876.708323,191.233329 876.841657,192.1 C876.974991,192.966671 877.099989,193.666664 877.216657,194.2 C877.333324,194.733336 877.458323,195.141665 877.591657,195.425 C877.724991,195.708335 877.858323,195.899999 877.991657,196 C878.124991,196.1 878.291656,196.15 878.491657,196.15 C879.09166,196.15 879.483322,196.050001 879.666657,195.85 C879.849991,195.649999 879.941657,195.316669 879.941657,194.85 C879.941657,193.883328 879.866657,192.70834 879.716657,191.325 C879.566656,189.94166 879.491657,188.133344 879.491657,185.9 C879.491657,184.833328 879.483323,184.008336 879.466657,183.425 C879.44999,182.841664 879.39999,182.408335 879.316657,182.125 C879.233323,181.841665 879.124991,181.666667 878.991657,181.6 C878.858323,181.533333 878.691658,181.5 878.491657,181.5 C877.75832,181.5 877.274991,181.566666 877.041657,181.7 C876.808322,181.833334 876.658324,182.049998 876.591657,182.35 L876.591657,182.35 Z M900.074987,173.95 C900.074987,173.549998 900.08332,172.99167 900.099987,172.275 C900.116654,171.55833 900.15832,170.775004 900.224987,169.925 C900.291654,169.074996 900.374986,168.208338 900.474987,167.325 C900.574987,166.441662 900.708319,165.61667 900.874987,164.85 C900.90832,164.683332 901.074985,164.533334 901.374987,164.4 C901.674988,164.266666 902.016652,164.15 902.399987,164.05 C902.783322,163.949999 903.158318,163.875 903.524987,163.825 C903.891655,163.775 904.141653,163.75 904.274987,163.75 C904.408321,163.75 904.599986,163.783333 904.849987,163.85 C905.099988,163.916667 905.366652,164.008333 905.649987,164.125 C905.933322,164.241667 906.191652,164.366666 906.424987,164.5 C906.658321,164.633334 906.80832,164.749999 906.874987,164.85 C907.074988,165.116668 907.249986,165.399998 907.399987,165.7 C907.549988,166.000001 907.624987,166.383331 907.624987,166.85 C907.624987,167.983339 907.441655,169.099994 907.074987,170.2 C906.874986,170.700002 906.624988,171.124998 906.324987,171.475 C906.024985,171.825002 905.691655,172.124999 905.324987,172.375 C904.958318,172.625001 904.599989,172.833332 904.249987,173 C903.899985,173.166667 903.574988,173.316666 903.274987,173.45 C902.408316,173.850002 901.791655,174.133332 901.424987,174.3 C901.058318,174.466667 900.791654,174.55 900.624987,174.55 C900.491653,174.55 900.366654,174.516667 900.249987,174.45 C900.13332,174.383333 900.074987,174.216668 900.074987,173.95 L900.074987,173.95 Z M900.624987,161.4 L896.274987,162.55 C895.608317,162.716667 895.274987,163.016664 895.274987,163.45 C895.274987,164.050003 895.624983,164.549998 896.324987,164.95 C896.458321,165.05 896.566653,165.424997 896.649987,166.075 C896.733321,166.725003 896.799987,167.474996 896.849987,168.325 C896.899987,169.175004 896.93332,170.033329 896.949987,170.9 C896.966654,171.766671 896.974987,172.48333 896.974987,173.05 C896.974987,174.316673 896.95832,175.708326 896.924987,177.225 C896.891653,178.741674 896.849987,180.183326 896.799987,181.55 C896.749987,182.916673 896.70832,184.108328 896.674987,185.125 C896.641653,186.141672 896.624987,186.783332 896.624987,187.05 C896.591653,187.683336 896.516654,188.216664 896.399987,188.65 C896.28332,189.083335 896.166654,189.441665 896.049987,189.725 C895.93332,190.008335 895.833321,190.233332 895.749987,190.4 C895.666653,190.566667 895.624987,190.733332 895.624987,190.9 C895.624987,191.100001 895.758319,191.291666 896.024987,191.475 C896.291655,191.658334 896.616652,191.808333 896.999987,191.925 C897.383322,192.041667 897.774985,192.141666 898.174987,192.225 C898.574989,192.308334 898.891652,192.35 899.124987,192.35 C899.591656,192.35 899.916653,192.283334 900.099987,192.15 C900.283321,192.016666 900.374987,191.783335 900.374987,191.45 C900.374987,191.183332 900.349987,190.883335 900.299987,190.55 C900.249987,190.216665 900.199987,189.775003 900.149987,189.225 C900.099987,188.674997 900.049987,187.966671 899.999987,187.1 C899.949987,186.233329 899.924987,185.116673 899.924987,183.75 L899.924987,182.4 C899.924987,181.599996 899.941653,180.791671 899.974987,179.975 C900.00832,179.158329 900.05832,178.41667 900.124987,177.75 C901.124992,177.950001 902.399979,178.483329 903.949987,179.35 C905.499995,180.216671 907.158311,181.233327 908.924987,182.4 C910.691662,183.566672 912.483311,184.81666 914.299987,186.15 C916.116663,187.48334 917.799979,188.699994 919.349987,189.8 C920.899995,190.900005 922.241648,191.816663 923.374987,192.55 C924.508326,193.283337 925.258318,193.65 925.624987,193.65 C925.824988,193.65 926.116652,193.525001 926.499987,193.275 C926.883322,193.024999 927.266652,192.733335 927.649987,192.4 C928.033322,192.066665 928.366652,191.733335 928.649987,191.4 C928.933322,191.066665 929.074987,190.816667 929.074987,190.65 C929.074987,190.416665 929.016654,190.233334 928.899987,190.1 C928.78332,189.966666 928.658321,189.9 928.524987,189.9 C927.158313,189.9 925.79166,189.51667 924.424987,188.75 C923.891651,188.416665 923.208324,188.000002 922.374987,187.5 C921.541649,186.999997 920.633325,186.433336 919.649987,185.8 C918.666649,185.166663 917.633326,184.508337 916.549987,183.825 C915.466648,183.141663 914.391659,182.450003 913.324987,181.75 C911.891646,180.783328 910.558326,179.900004 909.324987,179.1 C908.091647,178.299996 907.024991,177.616669 906.124987,177.05 C905.224982,176.48333 904.641655,176.133334 904.374987,176 C904.108319,175.866666 903.974987,175.75 903.974987,175.65 C903.974987,175.549999 904.058319,175.458334 904.224987,175.375 C904.391654,175.291666 904.874983,175.116668 905.674987,174.85 C906.27499,174.649999 906.924983,174.375002 907.624987,174.025 C908.32499,173.674998 908.983317,173.216669 909.599987,172.65 C910.216657,172.08333 910.724985,171.375004 911.124987,170.525 C911.524989,169.674996 911.724987,168.650006 911.724987,167.45 C911.724987,166.683329 911.491656,165.925004 911.024987,165.175 C910.558318,164.424996 909.924991,163.750003 909.124987,163.15 C908.324983,162.549997 907.383326,162.066668 906.299987,161.7 C905.216648,161.333331 904.04166,161.15 902.774987,161.15 C902.241651,161.15 901.824988,161.175 901.524987,161.225 C901.224985,161.275 900.924988,161.333333 900.624987,161.4 L900.624987,161.4 Z M938.408317,196.15 C938.708319,196.15 939.024982,195.883336 939.358317,195.35 C939.691652,194.816664 940.041649,194.141671 940.408317,193.325 C940.774986,192.508329 941.149982,191.591672 941.533317,190.575 C941.916653,189.558328 942.283316,188.583338 942.633317,187.65 C942.983319,186.716662 943.299983,185.875004 943.583317,185.125 C943.866652,184.374996 944.108316,183.833335 944.308317,183.5 L952.908317,168.25 C953.241652,167.68333 953.541649,167.233335 953.808317,166.9 C954.074985,166.566665 954.299983,166.291668 954.483317,166.075 C954.666652,165.858332 954.808317,165.683334 954.908317,165.55 C955.008318,165.416666 955.058317,165.283334 955.058317,165.15 C955.058317,164.883332 954.908319,164.633334 954.608317,164.4 C954.308316,164.166665 953.958319,163.966667 953.558317,163.8 C953.158315,163.633332 952.749986,163.491667 952.333317,163.375 C951.916649,163.258333 951.591652,163.2 951.358317,163.2 C950.991649,163.2 950.733318,163.291666 950.583317,163.475 C950.433317,163.658334 950.358317,164.08333 950.358317,164.75 C950.358317,165.41667 950.10832,166.341661 949.608317,167.525 C949.108315,168.708339 948.474988,170.033326 947.708317,171.5 C946.941647,172.966674 946.108322,174.524992 945.208317,176.175 C944.308313,177.825008 943.458321,179.449992 942.658317,181.05 C942.258315,180.049995 941.591655,178.841674 940.658317,177.425 C939.724979,176.008326 938.741656,174.550007 937.708317,173.05 C936.674979,171.549992 935.699989,170.091674 934.783317,168.675 C933.866646,167.258326 933.224986,166.066671 932.858317,165.1 C932.724983,164.733331 932.633318,164.375002 932.583317,164.025 C932.533317,163.674998 932.483318,163.358335 932.433317,163.075 C932.383317,162.791665 932.308318,162.558334 932.208317,162.375 C932.108317,162.191666 931.941652,162.1 931.708317,162.1 C931.474983,162.1 931.141653,162.216665 930.708317,162.45 C930.274982,162.683334 929.858319,162.958332 929.458317,163.275 C929.058315,163.591668 928.708319,163.924998 928.408317,164.275 C928.108316,164.625002 927.958317,164.916665 927.958317,165.15 C927.958317,165.450001 928.091649,165.808331 928.358317,166.225 C928.624985,166.641669 929.008315,167.15833 929.508317,167.775 C930.00832,168.39167 930.633314,169.158329 931.383317,170.075 C932.133321,170.991671 932.991646,172.11666 933.958317,173.45 C935.391658,175.45001 936.533313,177.06666 937.383317,178.3 C938.233322,179.533339 938.874982,180.524996 939.308317,181.275 C939.741653,182.025004 940.024983,182.608331 940.158317,183.025 C940.291651,183.441669 940.358317,183.849998 940.358317,184.25 C940.358317,185.216671 940.208319,186.183328 939.908317,187.15 C939.608316,188.116671 939.241653,188.999996 938.808317,189.8 C938.374982,190.600004 937.899987,191.266664 937.383317,191.8 C936.866648,192.333336 936.374986,192.649999 935.908317,192.75 C935.408315,192.85 935.099985,192.974999 934.983317,193.125 C934.86665,193.275001 934.808317,193.449999 934.808317,193.65 C934.808317,193.816667 934.941649,194.033332 935.208317,194.3 C935.474985,194.566668 935.799982,194.841665 936.183317,195.125 C936.566653,195.408335 936.966649,195.649999 937.383317,195.85 C937.799986,196.050001 938.141649,196.15 938.408317,196.15 L938.408317,196.15 Z" id="Hungry-Hungry"></path>
            </g>
        </g>
    </g>
</svg>